{"title":"Vacation 2015 BRRip XviD AC3-RARBG","uid":12618497,"size":1539240029,"categoryP":"video","categoryS":"movies","magnet":"?xt=urn:btih:824bea0d8e93585b5aa46cbe0f07f043cf321a33&amp;dn=Vacation+2015+BRRip+XviD+AC3-RARBG&amp;tr=udp%3A%2F%2Ftracker.leechers-paradise.org%3A6969&amp;tr=udp%3A%2F%2Fzer0day.ch%3A1337&amp;tr=udp%3A%2F%2Fopen.demonii.com%3A1337&amp;tr=udp%3A%2F%2Ftracker.coppersurfer.tk%3A6969&amp;tr=udp%3A%2F%2Fexodus.desync.com%3A6969","seeders":0,"leechers":0,"uploader":"TheRival","files":6,"time":1445556768,"description":"Screens: \nhttp://extraimago.com/image/Ul4 \nhttp://extraimago.com/image/UlB \nhttp://extraimago.com/image/UlC \nhttp://extraimago.com/image/UlY \nhttp://extraimago.com/image/Ulp\r\n\r\nVideo\r\nID                                       : 0\r\nFormat                                   : MPEG-4 Visual\r\nFormat profile                           :   \r\nFormat settings, BVOP                    : No\r\nFormat settings, QPel                    : No\r\nFormat settings, GMC                     : No warppoints\r\nFormat settings, Matrix                  : Default (H.263)\r\nCodec ID                                 : XVID\r\nCodec ID/Hint                            : XviD\r\nDuration                                 : 1h 39mn\r\nBit rate                                 : 1 597 Kbps\r\nWidth                                    : 720 pixels\r\nHeight                                   : 302 pixels\r\nDisplay aspect ratio                     : 2.40:1\r\nFrame rate                               : 23.976 fps\r\nColor space                              : YUV\r\nChroma subsampling                       : 4:2:0\r\nBit depth                                : 8 bits\r\nScan type                                : Progressive\r\nCompression mode                         : Lossy\r\nBits/(Pixel*Frame)                       : 0.306\r\nStream size                              : 1.10 GiB (78%)\r\nWriting library                          : Lavc56.60.100\r\n\r\nAudio\r\nID                                       : 1\r\nFormat                                   : AC-3\r\nFormat/Info                              : Audio Coding 3\r\nMode extension                           : CM (complete main)\r\nFormat settings, Endianness              : Big\r\nCodec ID                                 : 2000\r\nDuration                                 : 1h 39mn\r\nBit rate mode                            : Constant\r\nBit rate                                 : 448 Kbps\r\nChannel(s)                               : 6 channels\r\nChannel positions                        : Front: L C R, Side: L R, LFE\r\nSampling rate                            : 48.0 KHz\r\nCompression mode                         : Lossy\r\nStream size                              : 317 MiB (22%)\r\nAlignment                                : Aligned on interleaves\r\nInterleave, duration                     : 42 ms (1.00 video frame)\r\nInterleave, preload duration             : 512 ms","torrent":{"xt":"urn:btih:824bea0d8e93585b5aa46cbe0f07f043cf321a33","amp;dn":"Vacation+2015+BRRip+XviD+AC3-RARBG","amp;tr":["udp%3A%2F%2Ftracker.leechers-paradise.org%3A6969","udp%3A%2F%2Fzer0day.ch%3A1337","udp%3A%2F%2Fopen.demonii.com%3A1337","udp%3A%2F%2Ftracker.coppersurfer.tk%3A6969","udp%3A%2F%2Fexodus.desync.com%3A6969"],"infoHash":"824bea0d8e93585b5aa46cbe0f07f043cf321a33","infoHashBuffer":{"type":"Buffer","data":[130,75,234,13,142,147,88,91,90,164,108,190,15,7,240,67,207,50,26,51]},"announce":[],"urlList":[]}}